<svg xmlns="http://www.w3.org/2000/svg" viewBox="0 0 16 16" id="Bluesky--Streamline-Font-Awesome" height="16" width="16">
  <desc>
    Bluesky Streamline Icon: https://streamlinehq.com
  </desc>
<!--! Font Awesome Free 6.5.2 by @fontawesome - https://fontawesome.com License - https://fontawesome.com/license/free (Icons: CC BY 4.0, Fonts: SIL OFL 1.1, Code: MIT License) Copyright 2024 Fonticons, Inc.-->
  <path d="M11.261222222222221 9.053919444444444c-0.08983333333333333 -0.010888888888888889 -0.18238888888888888 -0.021777777777777778 -0.27222222222222225 -0.035388888888888886 0.09255555555555554 0.010888888888888889 0.18238888888888888 0.024499999999999997 0.27222222222222225 0.035388888888888886ZM8 7.213697222222223c-0.7104999999999999 -1.3801666666666665 -2.6432777777777776 -3.952666666666666 -4.4399444444444445 -5.221222222222222 -1.7231666666666665 -1.2168333333333332 -2.379222222222222 -1.007222222222222 -2.8120555555555553 -0.8112222222222222C0.24983333333333332 1.4071972222222222 0.15999999999999998 2.1721416666666666 0.15999999999999998 2.621308333333333s0.24772222222222218 3.691333333333333 0.40833333333333327 4.233055555555555c0.5308333333333333 1.7884999999999998 2.4255 2.392833333333333 4.170444444444444 2.196833333333333 0.08983333333333333 -0.01361111111111111 0.17966666666666667 -0.024499999999999997 0.27222222222222225 -0.03811111111111111 -0.08983333333333333 0.01361111111111111 -0.17966666666666667 0.02722222222222222 -0.27222222222222225 0.03811111111111111 -2.5561666666666665 0.3811111111111111 -4.826499999999999 1.312111111111111 -1.8483888888888889 4.625055555555556 3.2748333333333335 3.391888888888889 4.486222222222222 -0.7268333333333333 5.109611111111111 -2.8147777777777776 0.6233888888888889 2.087944444444444 1.3393333333333333 6.0569444444444445 5.052444444444444 2.8147777777777776 2.7875555555555556 -2.8147777777777776 0.7649444444444444 -4.246666666666666 -1.791222222222222 -4.625055555555556 -0.08983333333333333 -0.010888888888888889 -0.18238888888888888 -0.021777777777777778 -0.27222222222222225 -0.035388888888888886 0.09255555555555554 0.010888888888888889 0.18238888888888888 0.024499999999999997 0.27222222222222225 0.035388888888888886 1.7449444444444442 0.19327777777777777 3.6368888888888886 -0.4110555555555555 4.170444444444444 -2.196833333333333 0.1606111111111111 -0.5417222222222222 0.40833333333333327 -3.781166666666667 0.40833333333333327 -4.233055555555555s-0.08983333333333333 -1.2168333333333332 -0.588 -1.4400555555555554c-0.4301111111111111 -0.19327777777777777 -1.088888888888889 -0.4056111111111111 -2.809333333333333 0.8112222222222222 -1.799388888888889 1.2685555555555554 -3.7321666666666666 3.8410555555555552 -4.442666666666667 5.221222222222222Z" fill="#000000" stroke-width="0.0278"></path>
</svg>